<svg xmlns="http://www.w3.org/2000/svg" width="25" height="16" viewBox="0 0 25 16"><path d="M0 0h25v16H0V0Z" fill="#039"/><path d="M12.9239 1.73416c.024-.0737.1282-.0737.1522 0l.2427.74704c.0107.03296.0414.05527.0761.05527h.7855c.0775 0 .1097.09917.047.14473l-.6355.46169c-.028.02037-.0397.05648-.029.08944l.2427.74703c.0239.07371-.0604.135-.1231.08944l-.6355-.46169c-.028-.02037-.066-.02037-.094 0l-.6355.46169c-.0627.04556-.147-.01573-.1231-.08944l.2427-.74703c.0107-.03296-.001-.06907-.029-.08944l-.6355-.46169c-.0627-.04556-.0305-.14473.047-.14473h.7855c.0347 0 .0654-.02231.0761-.05527l.2427-.74704ZM12.9239 11.7342c.024-.0737.1282-.0737.1522 0l.2427.747c.0107.033.0414.0553.0761.0553h.7855c.0775 0 .1097.0991.047.1447l-.6355.4617c-.028.0204-.0397.0565-.029.0894l.2427.7471c.0239.0737-.0604.135-.1231.0894l-.6355-.4617c-.028-.0204-.066-.0204-.094 0l-.6355.4617c-.0627.0456-.147-.0157-.1231-.0894l.2427-.7471c.0107-.0329-.001-.069-.029-.0894l-.6355-.4617c-.0627-.0456-.0305-.1447.047-.1447h.7855c.0347 0 .0654-.0223.0761-.0553l.2427-.747ZM17.9239 6.73416c.024-.0737.1282-.0737.1522 0l.2427.74704c.0107.03296.0414.05527.0761.05527h.7855c.0775 0 .1097.09917.047.14473l-.6355.46169c-.028.02037-.0397.05648-.029.08944l.2427.74703c.0239.07371-.0604.135-.1231.08944l-.6355-.46169c-.028-.02037-.066-.02037-.094 0l-.6355.46169c-.0627.04556-.147-.01573-.1231-.08944l.2427-.74703c.0107-.03296-.001-.06907-.029-.08944l-.6355-.46169c-.0627-.04556-.0305-.14473.047-.14473h.7855c.0347 0 .0654-.02231.0761-.05527l.2427-.74704ZM7.92392 6.73416c.02394-.0737.12822-.0737.15216 0l.24273.74704c.01071.03296.04143.05527.07608.05527h.78548c.0775 0 .10972.09917.04702.14473l-.63546.46169c-.02804.02037-.03977.05648-.02906.08944l.24272.74703c.02395.07371-.06041.135-.1231.08944l-.63547-.46169c-.02804-.02037-.066-.02037-.09404 0l-.63547.46169c-.06269.04556-.14705-.01573-.1231-.08944l.24272-.74703c.01071-.03296-.00102-.06907-.02906-.08944l-.63546-.46169c-.0627-.04556-.03048-.14473.04702-.14473h.78548c.03465 0 .06537-.02231.07608-.05527l.24273-.74704ZM9.42392 10.2342c.02394-.0737.12822-.0737.15216 0l.24273.747c.01071.033.04143.0553.07608.0553h.78551c.0775 0 .1097.0991.047.1447l-.6355.4617c-.028.0204-.0397.0565-.029.0894l.2427.7471c.0239.0737-.0604.135-.1231.0894l-.63548-.4617c-.02804-.0204-.066-.0204-.09404 0l-.63547.4617c-.06269.0456-.14705-.0157-.1231-.0894l.24272-.7471c.01071-.0329-.00102-.069-.02906-.0894l-.63546-.4617c-.0627-.0456-.03048-.1447.04702-.1447h.78548c.03465 0 .06537-.0223.07608-.0553l.24273-.747ZM16.4239 10.2342c.024-.0737.1282-.0737.1522 0l.2427.747c.0107.033.0414.0553.0761.0553h.7855c.0775 0 .1097.0991.047.1447l-.6355.4617c-.028.0204-.0397.0565-.029.0894l.2427.7471c.0239.0737-.0604.135-.1231.0894l-.6355-.4617c-.028-.0204-.066-.0204-.094 0l-.6355.4617c-.0627.0456-.147-.0157-.1231-.0894l.2427-.7471c.0107-.0329-.001-.069-.029-.0894l-.6355-.4617c-.0627-.0456-.0305-.1447.047-.1447h.7855c.0347 0 .0654-.0223.0761-.0553l.2427-.747ZM16.4239 3.23416c.024-.0737.1282-.0737.1522 0l.2427.74704c.0107.03296.0414.05527.0761.05527h.7855c.0775 0 .1097.09917.047.14473l-.6355.46169c-.028.02037-.0397.05648-.029.08944l.2427.74703c.0239.07371-.0604.135-.1231.08944l-.6355-.46169c-.028-.02037-.066-.02037-.094 0l-.6355.46169c-.0627.04556-.147-.01573-.1231-.08944l.2427-.74703c.0107-.03296-.001-.06907-.029-.08944l-.6355-.46169c-.0627-.04556-.0305-.14473.047-.14473h.7855c.0347 0 .0654-.02231.0761-.05527l.2427-.74704ZM9.42392 3.23416c.02394-.0737.12822-.0737.15216 0l.24273.74704c.01071.03296.04143.05527.07608.05527h.78551c.0775 0 .1097.09917.047.14473l-.6355.46169c-.028.02037-.0397.05648-.029.08944l.2427.74703c.0239.07371-.0604.135-.1231.08944l-.63548-.46169c-.02804-.02037-.066-.02037-.09404 0l-.63547.46169c-.06269.04556-.14705-.01573-.1231-.08944l.24272-.74703c.01071-.03296-.00102-.06907-.02906-.08944l-.63546-.46169c-.0627-.04556-.03048-.14473.04702-.14473h.78548c.03465 0 .06537-.02231.07608-.05527l.24273-.74704Z" fill="#fc0"/></svg>
